<?xml version="1.0" encoding="UTF-8"?>
<!DOCTYPE svg PUBLIC "-//W3C//DTD SVG 1.1//EN" "http://www.w3.org/Graphics/SVG/1.1/DTD/svg11.dtd">
<!-- Creator: CorelDRAW X8 -->
<svg xmlns="http://www.w3.org/2000/svg" xml:space="preserve" width="27.4981mm" height="27.4983mm" version="1.1" style="shape-rendering:geometricPrecision; text-rendering:geometricPrecision; image-rendering:optimizeQuality; fill-rule:evenodd; clip-rule:evenodd"
viewBox="0 0 49 49"
 xmlns:xlink="http://www.w3.org/1999/xlink">
 <defs>
  <style type="text/css">
   <![CDATA[
    .fil4 {fill:none}
    .fil3 {fill:#FEFEFE;fill-rule:nonzero}
    .fil2 {fill:#75CCD4;fill-rule:nonzero}
    .fil0 {fill:#76BA60;fill-rule:nonzero}
    .fil1 {fill:#5E9653;fill-rule:nonzero}
   ]]>
  </style>
   <clipPath id="id0">
    <path d="M24 0c14,0 25,11 25,24 0,14 -11,25 -25,25 -13,0 -24,-11 -24,-25 0,-13 11,-24 24,-24z"/>
   </clipPath>
 </defs>
 <g id="Capa_x0020_1">
  <metadata id="CorelCorpID_0Corel-Layer"/>
  <g>
  </g>
  <g style="clip-path:url(#id0)">
   <g>
    <polygon class="fil0" points="0,49 49,49 49,0 0,0 "/>
    <polygon class="fil1" points="8,17 5,19 16,27 10,30 7,31 26,49 49,49 49,24 42,18 38,18 36,19 31,18 28,19 25,19 15,15 "/>
    <path class="fil2" d="M23 23c-1,0 -1,0 -2,0 0,-1 0,-1 0,-1 1,-1 1,-1 1,-1 1,1 1,1 1,2zm8 1c0,-1 -1,-1 -1,-1 -1,1 -2,1 -2,1 -1,0 -1,0 -2,0 -1,0 -1,0 -2,-1 1,-1 1,-2 0,-2 1,-1 2,-2 3,-2 0,0 0,0 1,0 0,0 0,-1 0,-1 0,0 1,0 1,0 -1,-1 -2,-1 -2,-1 -2,0 -4,2 -4,2 -1,0 -2,0 -2,1 -1,-1 -5,-5 -8,-5 -2,-1 -10,1 -8,4 0,0 2,1 4,0 2,0 5,-2 10,2l0 0c0,1 0,1 0,2 -4,5 -6,4 -8,4 -3,0 -4,2 -4,2 -1,4 6,3 9,2 2,-2 4,-5 5,-6 0,0 1,0 2,0 0,0 1,1 3,1 1,0 1,0 2,0 1,0 2,0 3,-1 0,0 0,0 0,0 0,-1 0,-1 0,-1z"/>
    <path class="fil3" d="M41 22c0,1 0,1 0,1 0,0 0,0 0,1 0,0 0,0 0,0 0,0 0,0 0,0 0,0 0,0 0,1 0,0 0,0 0,0 0,0 0,0 0,0l0 0c0,0 0,0 0,0 0,0 0,0 0,0 0,-1 0,-1 0,-1 0,0 0,0 0,0 0,0 0,0 0,0 0,-1 0,-1 -1,-1 0,0 0,0 0,0 0,-1 0,-1 0,-1 0,0 0,0 0,0 0,0 0,0 0,0 0,-1 0,-1 0,-1 0,0 0,0 0,0 0,0 0,0 0,-1 0,0 0,0 0,0 0,0 0,-1 0,-1 0,0 0,0 0,0 0,0 0,0 0,0 0,0 0,0 0,0l0 0c0,0 0,0 0,0 0,0 0,0 0,0 0,0 1,0 1,0 0,0 0,0 0,1 0,0 0,0 0,0 0,0 0,0 0,1 0,0 0,0 0,0 0,0 0,0 0,1 0,0 0,0 0,0 0,0 0,0 0,0zm3 -1c0,-1 -1,-2 -1,-3 -1,0 -1,-1 -2,-1 0,0 -2,0 -2,0l-3 1 -3 -1c-1,0 -2,0 -3,0 0,0 -1,0 -1,1 0,0 -1,0 -1,0 0,0 0,1 0,1 -1,1 -1,1 -1,2 0,1 0,2 1,3 0,0 1,0 2,-1 0,0 1,0 1,1 0,0 0,0 0,1 0,0 0,0 0,0 -1,1 -2,1 -3,1 0,0 0,1 0,1 0,0 1,1 1,4 0,1 1,5 2,7 0,1 1,1 2,0 0,-3 1,-10 3,-10 1,0 2,7 3,10 0,1 1,1 1,0 1,-2 2,-6 2,-7 0,-3 1,-4 1,-4 1,-2 1,-5 1,-6z"/>
    <path class="fil1" d="M41 22c0,-1 0,-1 0,-1 0,0 0,0 0,0 0,-1 0,-1 0,-1 0,0 0,0 0,0 0,-1 0,-1 0,-1 0,0 -1,0 -1,0 0,0 0,0 0,0 0,0 0,0 0,0l0 0c0,0 0,0 0,0 0,0 0,0 0,0 0,0 0,0 0,0 0,0 0,1 0,1 0,0 0,0 0,0 0,1 0,1 0,1 0,0 0,0 0,0 0,0 0,0 0,1 0,0 0,0 0,0 0,0 0,0 0,0 0,0 0,0 0,1 0,0 0,0 0,0 1,0 1,0 1,1 0,0 0,0 0,0 0,0 0,0 0,0 0,0 0,0 0,1 0,0 0,0 0,0 0,0 0,0 0,0l0 0c0,0 0,0 0,0 0,0 0,0 0,0 0,-1 0,-1 0,-1 0,0 0,0 0,0 0,0 0,0 0,0 0,-1 0,-1 0,-1 0,0 0,0 0,-1 0,0 0,0 0,0 0,0 0,0 0,0z"/>
   </g>
  </g>
  <path class="fil4" d="M24 0c14,0 25,11 25,24 0,14 -11,25 -25,25 -13,0 -24,-11 -24,-25 0,-13 11,-24 24,-24z"/>
 </g>
</svg>
