<?xml version="1.0" encoding="UTF-8"?>
<!DOCTYPE svg PUBLIC "-//W3C//DTD SVG 1.1//EN" "http://www.w3.org/Graphics/SVG/1.1/DTD/svg11.dtd">
<!-- Creator: CorelDRAW X8 -->
<svg xmlns="http://www.w3.org/2000/svg" xml:space="preserve" width="27.4982mm" height="27.4982mm" version="1.1" style="shape-rendering:geometricPrecision; text-rendering:geometricPrecision; image-rendering:optimizeQuality; fill-rule:evenodd; clip-rule:evenodd"
viewBox="0 0 51 51"
 xmlns:xlink="http://www.w3.org/1999/xlink">
 <defs>
  <style type="text/css">
   <![CDATA[
    .fil4 {fill:none}
    .fil2 {fill:#FEFEFE;fill-rule:nonzero}
    .fil3 {fill:#F3E228;fill-rule:nonzero}
    .fil0 {fill:#B76EAC;fill-rule:nonzero}
    .fil1 {fill:#A659A1;fill-rule:nonzero}
   ]]>
  </style>
   <clipPath id="id0">
    <path d="M26 0c14,0 25,11 25,26 0,14 -11,25 -25,25 -15,0 -26,-11 -26,-25 0,-15 11,-26 26,-26z"/>
   </clipPath>
 </defs>
 <g id="Capa_x0020_1">
  <metadata id="CorelCorpID_0Corel-Layer"/>
  <g>
  </g>
  <g style="clip-path:url(#id0)">
   <g>
    <polygon class="fil0" points="0,51 51,51 51,0 0,0 "/>
    <polygon class="fil1" points="34,9 38,8 51,19 51,51 11,51 0,44 9,42 16,43 16,23 20,25 20,23 15,19 "/>
    <path class="fil2" d="M25 46c6,0 11,-1 13,-2l1 0c2,0 3,-1 3,-2 0,-2 -1,-3 -3,-3l-39 0 0 5 12 0c3,1 8,2 13,2z"/>
    <path class="fil3" d="M38 38c0,0 -1,1 -1,1 0,0 -1,-1 -1,-1l0 -15c0,0 1,0 1,0 0,0 1,0 1,0l0 15z"/>
    <path class="fil3" d="M35 38c0,0 0,1 -1,1 0,0 -1,-1 -1,-1l0 -15c0,0 1,0 1,0 1,0 1,0 1,0l0 15z"/>
    <path class="fil3" d="M20 38c0,0 0,1 0,1 -1,0 -1,-1 -1,-1l0 -15c0,0 0,0 1,0 0,0 0,0 0,0l0 15z"/>
    <path class="fil3" d="M26 38c0,0 0,1 -1,1 0,0 0,-1 0,-1l0 -15c0,0 0,0 0,0 1,0 1,0 1,0l0 15z"/>
    <path class="fil3" d="M23 38c0,0 0,1 -1,1 0,0 0,-1 0,-1l0 -15c0,0 0,0 0,0 1,0 1,0 1,0l0 15z"/>
    <path class="fil3" d="M32 38c0,0 0,1 -1,1 0,0 0,-1 0,-1l0 -15c0,0 0,0 0,0 1,0 1,0 1,0l0 15z"/>
    <path class="fil3" d="M29 38c0,0 0,1 -1,1 0,0 0,-1 0,-1l0 -15c0,0 0,0 0,0 1,0 1,0 1,0l0 15z"/>
    <path class="fil3" d="M17 38c0,0 0,1 0,1 -1,0 -1,-1 -1,-1l0 -15c0,0 0,0 1,0 0,0 0,0 0,0l0 15z"/>
    <path class="fil2" d="M34 11c2,0 6,4 8,8 0,0 0,0 0,0 0,0 -1,-13 -8,-13 -8,0 -12,4 -16,4 -4,0 -8,-1 -8,-1 2,2 6,5 10,5 6,1 10,-3 14,-3z"/>
    <path class="fil3" d="M34 11c-4,0 -8,4 -14,3 -4,0 -8,-3 -10,-5 0,0 0,0 0,0 0,0 2,12 11,12 10,0 12,-3 16,-3 3,0 5,0 5,1 -2,-4 -6,-8 -8,-8z"/>
   </g>
  </g>
  <path class="fil4" d="M26 0c14,0 25,11 25,26 0,14 -11,25 -25,25 -15,0 -26,-11 -26,-25 0,-15 11,-26 26,-26z"/>
 </g>
</svg>
