<?xml version="1.0" encoding="UTF-8"?>
<!DOCTYPE svg PUBLIC "-//W3C//DTD SVG 1.1//EN" "http://www.w3.org/Graphics/SVG/1.1/DTD/svg11.dtd">
<!-- Creator: CorelDRAW X8 -->
<svg xmlns="http://www.w3.org/2000/svg" xml:space="preserve" width="27.4981mm" height="27.4981mm" version="1.1" style="shape-rendering:geometricPrecision; text-rendering:geometricPrecision; image-rendering:optimizeQuality; fill-rule:evenodd; clip-rule:evenodd"
viewBox="0 0 47 47"
 xmlns:xlink="http://www.w3.org/1999/xlink">
 <defs>
  <style type="text/css">
   <![CDATA[
    .fil6 {fill:none}
    .fil2 {fill:#FEFEFE;fill-rule:nonzero}
    .fil0 {fill:#F1686B;fill-rule:nonzero}
    .fil4 {fill:#F1ECC8;fill-rule:nonzero}
    .fil1 {fill:#D25B5C;fill-rule:nonzero}
    .fil3 {fill:#D3805F;fill-rule:nonzero}
    .fil5 {fill:#3D4498;fill-rule:nonzero}
   ]]>
  </style>
   <clipPath id="id0">
    <path d="M23 0c13,0 24,10 24,23 0,13 -11,24 -24,24 -13,0 -23,-11 -23,-24 0,-13 10,-23 23,-23z"/>
   </clipPath>
 </defs>
 <g id="Capa_x0020_1">
  <metadata id="CorelCorpID_0Corel-Layer"/>
  <g>
  </g>
  <g style="clip-path:url(#id0)">
   <g>
    <polygon class="fil0" points="0,47 47,47 47,0 0,0 "/>
    <polygon class="fil1" points="26,8 29,8 47,18 47,47 20,47 4,32 3,28 11,23 17,19 17,12 21,9 "/>
    <path class="fil2" d="M40 17c0,-1 -1,-2 -1,-3 -1,0 -2,-1 -2,-1 -1,0 -3,0 -4,0l-3 1 -4 -1c-1,0 -2,0 -3,0 -1,0 -2,1 -2,1 -1,1 -1,2 -1,3 -1,2 0,5 1,8 0,0 1,2 1,5 0,2 1,7 2,9 0,1 2,1 2,0 1,-4 2,-13 4,-13 2,0 2,9 3,13 1,1 2,1 3,0 1,-2 2,-7 2,-9 0,-3 1,-5 1,-5 1,-3 1,-6 1,-8z"/>
    <path class="fil1" d="M37 19c0,0 0,0 0,-1 0,0 0,0 0,0 0,0 0,-1 0,-1 0,0 0,0 0,0 0,-1 -1,-1 -1,-1 0,0 0,0 0,0 0,-1 0,-1 0,-1 -1,0 -1,0 -1,0 0,0 0,0 0,0l0 0c0,0 0,0 0,0 0,0 0,0 0,0 0,0 0,1 0,1 0,0 0,0 0,1 0,0 0,0 0,0 0,0 0,1 0,1 0,0 0,0 0,0 0,0 0,0 0,0 0,0 0,1 0,1 0,0 0,0 0,0 0,0 1,0 1,1 0,0 0,0 0,0 0,1 0,1 0,1 0,0 0,0 0,0 0,0 0,0 0,1 0,0 0,0 0,0 0,0 0,0 0,0 0,1 0,1 0,1l0 0c0,0 0,0 1,-1 0,0 0,0 0,0 0,0 0,0 0,0 0,0 0,-1 0,-1 0,0 0,0 0,0 0,0 0,0 0,-1 0,0 0,0 0,0 0,-1 0,-1 0,-1z"/>
    <path class="fil3" d="M20 20c-1,-1 -2,-3 -2,-4 0,-4 3,-7 7,-7 3,0 5,2 6,4l-1 1 -4 -1c-1,0 -1,0 -2,0 0,0 -1,0 -1,0 -1,0 -2,1 -2,1 -1,1 -1,2 -1,3 0,1 0,2 0,3z"/>
    <path class="fil4" d="M25 22c-2,0 -4,-1 -5,-2 0,-1 0,-2 0,-3 0,-1 0,-2 1,-3 0,0 1,-1 2,-1 0,0 1,0 1,0 1,0 1,0 2,0l4 1 1 -1c0,1 0,2 0,3 0,3 -3,6 -6,6z"/>
    <path class="fil5" d="M30 19c-1,1 -2,2 -3,2 0,0 0,0 -1,1 0,0 -1,0 -1,0 0,0 0,0 0,0 -1,0 -1,0 -1,-1 -1,0 -2,0 -2,0 -2,-1 -3,-3 -3,-5 0,-2 1,-4 3,-5 0,-1 1,-1 2,-1 0,0 0,0 1,0 0,0 0,0 0,0 0,0 1,0 1,0 1,0 1,0 1,0 1,0 2,1 3,2 1,1 1,2 1,4 0,1 0,2 -1,3zm-18 9l-5 3c0,0 -1,0 -1,0 0,0 -1,0 -1,-1 -1,0 -1,0 -1,-1 0,0 1,-1 1,-1l4 -3 1 0c0,-1 1,-1 1,-1 0,0 0,0 0,0 1,0 1,1 2,1 0,0 0,1 0,1 0,1 0,1 -1,2zm22 -10l0 0 0 0c0,-1 0,-1 0,-2l0 0c0,-2 0,-3 -1,-5 -1,0 -1,-1 -2,-2 0,0 -1,0 -1,-1 -1,0 -2,-1 -3,-1 0,0 0,0 0,0 0,0 0,0 0,0 0,0 0,0 0,0 0,0 -1,0 -1,0 0,0 0,0 0,0 0,0 0,0 0,0 0,0 0,0 0,0 0,0 0,0 0,0 0,0 0,0 0,0 0,0 0,0 0,0 0,0 0,0 0,0 0,0 0,0 -1,0 0,0 0,0 0,0 0,0 0,0 0,0 0,0 0,0 0,0 0,0 0,0 0,0 0,0 0,0 0,0l0 0 0 0c0,0 0,0 0,0 -1,0 -1,0 -1,0 -1,0 -2,0 -2,0 -3,1 -4,3 -5,5 -1,1 -1,1 -1,2 0,0 0,1 0,2 0,1 0,1 0,2l0 0 -1 1 -2 1 0 0 0 1 -2 1 -2 1 -1 1 -1 1 -3 2c-1,1 -2,2 -2,2l0 0 0 1c0,0 1,1 1,1l0 1c1,0 2,1 3,1l0 0 0 0c0,0 1,0 1,-1l1 0 0 0 7 -5 1 -1 2 -1 2 -2 0 0c0,1 1,1 2,1 0,1 0,1 1,1 0,0 0,0 1,0 0,0 0,0 0,0 0,0 1,0 1,0l0 0c0,0 1,0 1,0 1,0 1,0 1,0 1,-1 2,-1 3,-1 0,-1 1,-1 1,-2 1,0 1,-1 2,-2 0,0 0,-1 1,-2z"/>
   </g>
  </g>
  <path class="fil6" d="M23 0c13,0 24,10 24,23 0,13 -11,24 -24,24 -13,0 -23,-11 -23,-24 0,-13 10,-23 23,-23z"/>
 </g>
</svg>
